<svg width="245" height="510" viewBox="0 0 245 510" fill="none" xmlns="http://www.w3.org/2000/svg">
<g opacity="0.2">
<path d="M160.536 23.2277C175.255 12.8364 197.351 23.2277 210.678 18.6822C253.991 -17.3235 242.885 14.9135 232.89 52.6233C185.135 66.1252 107.54 130.895 102.74 183.715C97.0736 246.063 255.716 377.686 213.786 465.435C208.346 474.672 191.12 503.536 153.737 507C119.725 491.99 81.4347 459.893 86.8748 433.106C91.5926 416.195 94.6401 400.849 96.3829 386.923C77.6984 378.61 36.9283 377.301 18.8788 377.686C19.2566 376.147 20.0121 371.682 20.0121 366.14C13.2126 366.14 7.54627 364.986 3.01389 362.677C2.10729 316.493 45.6999 276.467 67.6095 262.227C57.4102 244.909 67.6095 219.508 67.6095 216.044C67.6095 212.58 58.5415 206.807 56.275 187.179C54.0084 167.551 80.0747 147.923 80.0747 134.068C80.0747 128.295 64.2092 121.368 74.4085 102.894C116.339 79.8025 92.5406 59.0199 102.74 48.6286C119.739 44.0103 146.937 42.8557 149.203 42.8557C151.017 42.8557 153.361 28.2928 160.536 23.2277Z" fill="#423B3F"/>
<path d="M67.6095 262.227C57.4102 244.909 67.6095 219.508 67.6095 216.044C67.6095 212.58 58.5415 206.807 56.275 187.179C54.0084 167.551 80.0747 147.923 80.0747 134.068C80.0747 128.295 64.2092 121.368 74.4085 102.894C116.339 79.8025 92.5406 59.0199 102.74 48.6286C119.739 44.0103 146.937 42.8557 149.203 42.8557C151.017 42.8557 153.361 28.2928 160.536 23.2277C175.255 12.8364 197.351 23.2277 210.678 18.6822C253.991 -17.3235 242.885 14.9135 232.89 52.6233C185.135 66.1252 107.54 130.895 102.74 183.715C97.0736 246.063 255.716 377.686 213.786 465.435C208.346 474.672 191.12 503.536 153.737 507C119.725 491.99 81.4347 459.893 86.8748 433.106C91.5926 416.195 94.6401 400.849 96.3829 386.923M67.6095 262.227C45.6999 276.467 2.10729 316.493 3.01389 362.677C7.54627 364.986 13.2126 366.14 20.0121 366.14M67.6095 262.227C74.4235 273.798 94.3897 297.221 97.7683 344.203M20.0121 366.14C20.0121 371.682 19.2566 376.147 18.8788 377.686C36.9283 377.301 77.6984 378.61 96.3829 386.923M20.0121 366.14C24.5451 359.213 58.7992 339.585 97.7683 344.203M96.3829 386.923C98.392 370.869 98.6672 356.702 97.7683 344.203" stroke="#131112" stroke-width="5"/>
</g>
</svg>
